<?xml version="1.0" standalone="no"?>
<!DOCTYPE svg PUBLIC "-//W3C//DTD SVG 20010904//EN"
 "http://www.w3.org/TR/2001/REC-SVG-20010904/DTD/svg10.dtd">
<svg version="1.0" xmlns="http://www.w3.org/2000/svg"
 width="64.000000pt" height="64.000000pt" viewBox="0 0 64.000000 64.000000"
 preserveAspectRatio="xMidYMid meet">
<metadata>
Created by potrace 1.11, written by Peter Selinger 2001-2013
</metadata>
<g transform="translate(0.000000,64.000000) scale(0.100000,-0.100000)"
fill="#000000" stroke="none">
<path d="M230 600 c-47 -22 -86 -43 -87 -47 -2 -4 17 -16 42 -26 44 -19 45
-20 44 -65 0 -26 -6 -81 -13 -122 -12 -64 -12 -77 1 -97 8 -13 19 -21 23 -18
4 3 7 -1 7 -8 -1 -14 65 -157 73 -157 8 0 74 143 73 157 0 7 3 10 8 8 4 -3 15
5 23 17 12 20 13 33 1 98 -8 41 -14 96 -14 122 -1 45 0 46 44 65 25 10 45 21
45 25 0 7 -129 70 -167 82 -10 3 -56 -12 -103 -34z m116 -252 c1 -15 -2 -30
-7 -33 -5 -4 -9 -37 -9 -76 0 -39 -4 -69 -10 -69 -6 0 -10 30 -10 69 0 39 -4
72 -9 76 -8 4 -8 33 -2 63 1 2 11 2 22 0 15 -2 23 -11 25 -30z"/>
<path d="M308 363 c6 -2 18 -2 25 0 6 3 1 5 -13 5 -14 0 -19 -2 -12 -5z"/>
<path d="M18 433 c-7 -16 -12 -67 -12 -114 -1 -76 2 -92 29 -144 59 -115 181
-183 310 -173 157 13 278 131 292 286 5 58 -11 157 -27 167 -4 3 -1 -16 7 -43
9 -29 13 -69 10 -103 -19 -223 -250 -349 -454 -247 -121 61 -190 221 -150 351
16 52 13 63 -5 20z"/>
</g>
</svg>
